<?xml version="1.0" encoding="iso-8859-1"?>
<!-- Generator: Adobe Illustrator 19.0.0, SVG Export Plug-In . SVG Version: 6.00 Build 0)  -->
<svg version="1.1" id="Layer_1" xmlns="http://www.w3.org/2000/svg" xmlns:xlink="http://www.w3.org/1999/xlink" x="0px" y="0px"
	 viewBox="0 0 512 512" style="enable-background:new 0 0 512 512;" xml:space="preserve">
<path style="fill:#B27214;" d="M503.434,145.915l-37.036,12.277c-15.554-46.948-48.673-83.162-89.637-103.741l17.496-34.843h0.011
	C444.152,44.652,484.488,88.734,503.434,145.915z"/>
<path style="fill:#F7B239;" d="M466.398,158.191l-170.035,56.336v-0.011l80.398-160.065
	C417.726,75.03,450.844,111.243,466.398,158.191z"/>
<g>
	<path style="fill:#B27214;" d="M324.617,79.221l-17.496,34.843c-40.964-20.568-89.774-25.524-136.734-9.958
		C76.48,135.214,25.569,236.579,56.689,330.487l-37.036,12.277C-18.239,228.402,43.75,104.973,158.123,67.081
		C215.281,48.135,274.734,54.165,324.617,79.221z"/>
	<path style="fill:#B27214;" d="M146.326,434.228l-17.496,34.843h-0.011c-49.883-25.044-90.219-69.126-109.165-126.307
		l37.036-12.277C72.243,377.435,105.361,413.649,146.326,434.228z"/>
	<path style="fill:#B27214;" d="M433.794,205.539c37.892,114.35-24.097,237.779-138.458,275.671
		c-57.169,18.946-116.611,12.916-166.506-12.14l17.496-34.843c40.976,20.568,89.785,25.524,136.745,9.958
		c93.919-31.109,144.808-132.462,113.699-226.382L433.794,205.539z"/>
</g>
<g>
	<path style="fill:#F7B239;" d="M396.77,217.804c31.108,93.919-19.78,195.273-113.699,226.382
		c-46.96,15.566-95.769,10.609-136.745-9.958l80.398-160.076L396.77,217.804z"/>
	<path style="fill:#F7B239;" d="M307.121,114.064l-80.398,160.088L56.689,330.487c-31.12-93.908,19.791-195.273,113.699-226.382
		C217.348,88.54,266.157,93.496,307.121,114.064z"/>
	<path style="fill:#F7B239;" d="M226.724,274.152l-80.398,160.076c-40.964-20.579-74.083-56.792-89.637-103.741L226.724,274.152z"/>
</g>
<g>
	<circle style="fill:#F24C8F;" cx="141.576" cy="189.187" r="30.833"/>
	<circle style="fill:#F24C8F;" cx="179.754" cy="382.838" r="30.833"/>
	<path style="fill:#F24C8F;" d="M296.881,250.902c5.356,16.163,22.805,24.927,38.968,19.571
		c16.163-5.356,24.917-22.801,19.56-38.964"/>
	<path style="fill:#F24C8F;" d="M366.515,191.286c-5.356-16.163,3.397-33.608,19.56-38.964c16.174-5.359,33.612,3.408,38.968,19.571
		"/>
</g>
<path d="M437.641,197.883c-2.031-1.021-4.383-1.191-6.538-0.476l-187.44,62.107L332.256,83.12c0.252-0.492,0.458-1.012,0.613-1.553
	c1.19-4.163-0.915-8.541-4.871-10.23C274.004,44.36,212.74,39.958,155.427,58.95C36.762,98.27-27.793,226.794,11.524,345.453
	c19.048,57.487,59.339,104.108,113.454,131.276c0.114,0.057,0.228,0.112,0.344,0.163c31.962,15.988,66.47,24.068,101.201,24.067
	c23.986,0,48.082-3.854,71.512-11.618c118.66-39.317,183.209-167.841,143.893-286.5
	C441.214,200.687,439.672,198.902,437.641,197.883z M382.807,342.953L249.05,275.774l43.31-14.351
	c7.136,11.927,20.089,19.184,33.82,19.184c4.099,0,8.265-0.645,12.362-2.003c17.825-5.905,28.61-23.402,26.791-41.36l25.797-8.548
	C401.711,266.803,398.8,306.785,382.807,342.953z M70.724,205.382l133.681,67.14L62.327,319.599
	C51.475,280.437,55.315,240.295,70.724,205.382z M212.094,257.213l-59.902-30.085c0.594-0.167,1.188-0.344,1.779-0.539
	c20.623-6.833,31.839-29.169,25.007-49.791c-6.833-20.623-29.169-31.841-49.791-25.006c-20.621,6.833-31.839,29.168-25.006,49.79
	c0.2,0.603,0.441,1.181,0.667,1.768l-26.435-13.277c18.804-33.21,48.71-60.262,86.604-74.944L212.094,257.213z M134.575,168.053
	c2.317-0.767,4.67-1.132,6.988-1.132c9.339,0,18.06,5.927,21.155,15.265c1.871,5.646,1.431,11.683-1.239,16.998
	c-2.669,5.315-7.25,9.273-12.896,11.144c-5.647,1.872-11.683,1.43-16.998-1.239c-5.315-2.669-9.273-7.25-11.144-12.896
	C116.581,184.539,122.92,171.915,134.575,168.053z M209.794,288.781l-27.497,54.749c-4.919-0.324-9.977,0.265-14.935,1.908
	c-20.623,6.833-31.839,29.169-25.007,49.791c1.643,4.959,4.196,9.36,7.392,13.111l-7.133,14.203
	c-34.427-19.47-60.639-49.803-74.904-86.682L209.794,288.781z M200.891,375.833c3.861,11.655-2.478,24.279-14.134,28.142
	c-5.226,1.73-10.641,1.397-15.381-0.533l19.906-39.636C195.819,366.544,199.207,370.75,200.891,375.833z M158.615,389.841
	c-1.871-5.646-1.431-11.683,1.239-16.998c2.669-5.315,7.25-9.273,12.896-11.144c0.163-0.055,0.33-0.092,0.494-0.143L158.8,390.316
	C158.742,390.155,158.668,390.004,158.615,389.841z M163.684,418.758c5.012,2.244,10.486,3.48,16.099,3.48
	c4.098,0,8.266-0.645,12.362-2.003c20.621-6.833,31.839-29.168,25.006-49.79c-3.217-9.711-9.874-17.334-18.168-21.97l26.119-52.005
	l47.08,142.085c-38.102,10.581-78.086,7.666-114.26-8.324L163.684,418.758z M241.362,291.083l133.759,67.178
	c-19.461,34.43-49.793,60.641-86.679,74.907L241.362,291.083z M309.321,255.804l39.02-12.93
	c-0.662,8.688-6.417,16.563-15.188,19.469c-5.647,1.869-11.683,1.43-16.999-1.239C313.511,259.776,311.204,257.973,309.321,255.804z
	 M228.354,251.826l-47.08-142.088c38.107-10.583,78.091-7.67,114.261,8.326L228.354,251.826z M226.921,64.471
	c29.433,0,58.703,6.281,86.13,18.718l-9.823,19.558c-40.27-18.027-84.887-21.277-127.346-9.28l-6.887-20.786
	C188.064,67.195,207.527,64.471,226.921,64.471z M152.74,78.083l6.884,20.774c-42.364,16.193-75.733,46.399-96.529,83.521
	l-19.556-9.821C66.877,130.44,104.664,96.2,152.74,78.083z M35.86,187.871l19.547,9.818c-17.358,38.849-21.661,83.65-9.351,127.302
	l-20.8,6.892C11.079,282.499,16.006,231.744,35.86,187.871z M125.093,457.429c-43.718-24.179-76.857-62.521-94.452-109.285
	l20.797-6.891c15.728,41.213,44.976,75.061,83.481,96.61L125.093,457.429z M140.405,465.108l9.828-19.568
	c24.334,10.888,50.244,16.403,76.315,16.403c17.077-0.001,34.222-2.367,51.025-7.114l6.884,20.774
	C236.449,489.409,185.911,485.734,140.405,465.108z M300.716,470.213l-6.884-20.777c42.364-16.191,75.732-46.397,96.528-83.521
	l19.637,9.862C385.811,419.491,347.473,452.62,300.716,470.213z M417.688,360.471l-19.64-9.865
	c17.356-38.849,21.658-83.65,9.349-127.301l20.802-6.892C442.008,264.427,438.313,314.966,417.688,360.471z"/>
<path d="M511.563,143.225C492.515,85.738,452.224,39.117,398.109,11.949c-1.954-0.981-4.222-1.175-6.315-0.546
	c-2.257,0.677-4.135,2.254-5.193,4.359l-97.892,194.911c-1.063,2.117-1.198,4.592-0.379,6.816c1.272,3.452,4.542,5.606,8.036,5.606
	c0.893,0,1.802-0.142,2.694-0.437l207.066-68.61C510.617,152.561,513.051,147.716,511.563,143.225z M380.472,66.133
	c34.426,19.462,60.636,49.795,74.904,86.686l-25.797,8.548c-9.265-15.49-28.369-23.082-46.197-17.176
	c-17.825,5.905-28.61,23.401-26.791,41.359l-43.302,14.348L380.472,66.133z M412.589,166.996l-39.022,12.93
	c0.214-2.865,0.988-5.688,2.315-8.333c2.667-5.315,7.244-9.271,12.889-11.142C397.546,157.544,406.869,160.423,412.589,166.996z
	 M471.648,147.428c-15.73-41.224-44.979-75.074-83.482-96.612l9.827-19.566c43.722,24.178,76.858,62.52,94.454,109.288
	L471.648,147.428z"/>
<path d="M254.003,146.16l-21.648-10.873c-4.224-2.122-9.375-0.418-11.498,3.81s-0.418,9.375,3.81,11.498l21.648,10.873
	c1.233,0.619,2.546,0.912,3.837,0.912c3.136,0,6.158-1.729,7.661-4.722C259.936,153.43,258.231,148.283,254.003,146.16z"/>
<path d="M303.038,349.424c-0.501-4.703-4.718-8.109-9.426-7.607c-4.704,0.502-8.109,4.722-7.607,9.426l2.572,24.087
	c0.469,4.394,4.184,7.656,8.506,7.656c0.304,0,0.611-0.016,0.92-0.049c4.704-0.503,8.109-4.722,7.607-9.426L303.038,349.424z"/>
<path d="M114.137,246.378c-4.667-0.778-9.079,2.378-9.854,7.044l-3.974,23.897c-0.777,4.666,2.378,9.078,7.044,9.854
	c0.476,0.079,0.949,0.118,1.416,0.118c4.112,0,7.742-2.97,8.438-7.162l3.974-23.897
	C121.957,251.566,118.803,247.154,114.137,246.378z"/>
<path d="M350.119,286.998c-1.435,4.508,1.054,9.326,5.562,10.76l23.081,7.352c0.865,0.275,1.74,0.407,2.602,0.407
	c3.629,0,6.998-2.325,8.159-5.968c1.435-4.508-1.054-9.326-5.562-10.76l-23.081-7.352
	C356.371,280.001,351.554,282.492,350.119,286.998z"/>
<path d="M129.917,353.54c4.061-2.427,5.385-7.686,2.957-11.747c-2.427-4.06-7.686-5.386-11.747-2.957l-20.793,12.43
	c-4.061,2.427-5.385,7.686-2.957,11.747c1.605,2.684,4.446,4.172,7.36,4.172c1.495,0,3.01-0.392,4.386-1.214L129.917,353.54z"/>
<circle cx="386.927" cy="111.655" r="8.565"/>
<circle cx="232.777" cy="183.031" r="8.565"/>
<circle cx="82.636" cy="236.386" r="8.565"/>
<circle cx="147.023" cy="272.805" r="8.565"/>
<circle cx="239.949" cy="411.64" r="8.565"/>
<circle cx="339.704" cy="364.144" r="8.565"/>
<g>
</g>
<g>
</g>
<g>
</g>
<g>
</g>
<g>
</g>
<g>
</g>
<g>
</g>
<g>
</g>
<g>
</g>
<g>
</g>
<g>
</g>
<g>
</g>
<g>
</g>
<g>
</g>
<g>
</g>
</svg>
